<?xml version="1.0" encoding="UTF-8" standalone="no"?>
<!-- Created with Inkscape (http://www.inkscape.org/) -->

<svg
   xmlns:dc="http://purl.org/dc/elements/1.1/"
   xmlns:cc="http://creativecommons.org/ns#"
   xmlns:rdf="http://www.w3.org/1999/02/22-rdf-syntax-ns#"
   xmlns:svg="http://www.w3.org/2000/svg"
   xmlns="http://www.w3.org/2000/svg"
   xmlns:sodipodi="http://sodipodi.sourceforge.net/DTD/sodipodi-0.dtd"
   xmlns:inkscape="http://www.inkscape.org/namespaces/inkscape"
   width="600"
   height="600"
   id="svg2"
   version="1.1"
   inkscape:version="0.48.4 r9939"
   sodipodi:docname="3.12.svg">
  <title
     id="title3002">3.12 Ограничение массы, приходящейся на ось транспортного средства</title>
  <defs
     id="defs4" />
  <sodipodi:namedview
     id="base"
     pagecolor="#ffffff"
     bordercolor="#666666"
     borderopacity="1.0"
     inkscape:pageopacity="0.0"
     inkscape:pageshadow="2"
     inkscape:zoom="0.70710678"
     inkscape:cx="218.45264"
     inkscape:cy="274.54193"
     inkscape:document-units="px"
     inkscape:current-layer="layer1"
     showgrid="false"
     inkscape:window-width="1920"
     inkscape:window-height="1024"
     inkscape:window-x="-4"
     inkscape:window-y="-4"
     inkscape:window-maximized="1" />
  <metadata
     id="metadata7">
    <rdf:RDF>
      <cc:Work
         rdf:about="">
        <dc:format>image/svg+xml</dc:format>
        <dc:type
           rdf:resource="http://purl.org/dc/dcmitype/StillImage" />
        <dc:title>3.12 Ограничение массы, приходящейся на ось транспортного средства</dc:title>
        <cc:license
           rdf:resource="http://creativecommons.org/licenses/by-sa/3.0/" />
        <dc:description>ГОСТ Р 52290-2004
Размеры и пропорции по типоразмеру I</dc:description>
      </cc:Work>
      <cc:License
         rdf:about="http://creativecommons.org/licenses/by-sa/3.0/">
        <cc:permits
           rdf:resource="http://creativecommons.org/ns#Reproduction" />
        <cc:permits
           rdf:resource="http://creativecommons.org/ns#Distribution" />
        <cc:requires
           rdf:resource="http://creativecommons.org/ns#Notice" />
        <cc:requires
           rdf:resource="http://creativecommons.org/ns#Attribution" />
        <cc:permits
           rdf:resource="http://creativecommons.org/ns#DerivativeWorks" />
        <cc:requires
           rdf:resource="http://creativecommons.org/ns#ShareAlike" />
      </cc:License>
    </rdf:RDF>
  </metadata>
  <g
     inkscape:label="Layer 1"
     inkscape:groupmode="layer"
     id="layer1"
     transform="translate(0,-452.36218)">
    <path
       sodipodi:type="arc"
       style="opacity:1;color:#000000;fill:#ffffff;fill-opacity:1;fill-rule:nonzero;stroke:none;stroke-width:1px;marker:none;visibility:visible;display:inline;overflow:visible;enable-background:accumulate"
       id="path5334"
       sodipodi:cx="-87.720657"
       sodipodi:cy="432.25998"
       sodipodi:rx="22.107042"
       sodipodi:ry="29.465372"
       d="m -65.613615,432.25998 c 0,16.27327 -9.89766,29.46537 -22.107042,29.46537 -12.209383,0 -22.107043,-13.1921 -22.107043,-29.46537 0,-16.27328 9.89766,-29.46537 22.107043,-29.46537 12.209382,0 22.107042,13.19209 22.107042,29.46537 z"
       transform="matrix(13.570336,0,0,10.181443,1490.3988,-3648.6681)" />
    <path
       transform="matrix(13.525102,0,0,10.147505,1486.4308,-3633.998)"
       d="m -65.613615,432.25998 c 0,16.27327 -9.89766,29.46537 -22.107042,29.46537 -12.209383,0 -22.107043,-13.1921 -22.107043,-29.46537 0,-16.27328 9.89766,-29.46537 22.107043,-29.46537 12.209382,0 22.107042,13.19209 22.107042,29.46537 z"
       sodipodi:ry="29.465372"
       sodipodi:rx="22.107042"
       sodipodi:cy="432.25998"
       sodipodi:cx="-87.720657"
       id="path3003"
       style="color:#000000;fill:none;stroke:#000000;stroke-width:0.17071831000000001;stroke-miterlimit:4;stroke-opacity:1;stroke-dasharray:none;marker:none;visibility:visible;display:inline;overflow:visible;enable-background:accumulate;opacity:1"
       sodipodi:type="arc" />
    <path
       style="opacity:1;color:#000000;fill:#ff0000;fill-opacity:1;fill-rule:nonzero;stroke:none;stroke-width:1px;marker:none;visibility:visible;display:inline;overflow:visible;enable-background:accumulate"
       d="M 300 10 C 139.83742 10 10 139.83742 10 300 C 10 460.16258 139.83742 590 300 590 C 460.16258 590 590 460.16258 590 300 C 590 139.83742 460.16258 10 300 10 z M 300 59.03125 C 433.0828 59.03125 540.96875 166.91719 540.96875 300 C 540.96875 433.08281 433.0828 540.96875 300 540.96875 C 166.9172 540.96875 59.03125 433.08281 59.03125 300 C 59.03125 166.91719 166.9172 59.03125 300 59.03125 z "
       transform="translate(0,452.36218)"
       id="path4775-9" />
    <path
       id="path6892"
       style="opacity:1;color:#000000;fill:#000000;fill-opacity:1;stroke:none;stroke-width:1px;marker:none;visibility:visible;display:inline;overflow:visible;enable-background:accumulate"
       d="m 300.0001,781.3944 -3.7e-4,0 c -12.66298,0 -23.90819,6.08348 -30.97057,15.48386 -3.5313,4.69896 -9.15053,7.74194 -15.48104,7.74194 l -79.35447,-2e-5 0,-32.9032 c 0,-10.68939 -8.66545,-19.35484 -19.35484,-19.35484 -10.68938,0 -19.35484,8.66545 -19.35484,19.35484 l 0,96.77419 0,0 c 0,10.68938 8.66546,19.35484 19.35484,19.35484 10.68939,0 19.35484,-8.66546 19.35484,-19.35484 l 0,-32.90325 79.35057,0 c 6.33051,0 11.94974,3.04299 15.48298,7.74195 7.06433,9.40037 18.30955,15.48388 30.97253,15.48388 12.66298,0 23.90819,-6.08351 30.97076,-15.48388 3.53148,-4.69896 9.15071,-7.74195 15.48122,-7.74195 l 79.35484,0 0,32.90325 0,0 c 0,10.68938 8.66546,19.35484 19.35484,19.35484 10.68938,0 19.35484,-8.66546 19.35484,-19.35484 l 0,-96.77419 c 0,-10.68939 -8.66546,-19.35484 -19.35484,-19.35484 -10.68938,0 -19.35484,8.66545 -19.35484,19.35484 l 0,32.9032 -79.35097,0 c -6.33051,0 -11.94974,-3.04298 -15.48315,-7.74193 -7.06415,-9.40037 -18.30935,-15.48385 -30.97233,-15.48385 z"
       inkscape:connector-curvature="0"
       sodipodi:nodetypes="sscccsssccsscccscccccssssscccs" />
    <g
       style="font-size:211.68870544px;font-style:normal;font-variant:normal;font-weight:normal;font-stretch:normal;line-height:125%;letter-spacing:0px;word-spacing:0px;fill:#000000;fill-opacity:1;stroke:none;font-family:Arial;-inkscape-font-specification:Arial"
       id="text7949-8-8-7">
      <path
         d="m 228.74353,662.65537 c 1.65377,23.98039 10.68085,35.8672 27.08127,35.66045 14.05737,-0.0689 21.12054,-10.0607 21.18955,-29.97546 -10e-5,-7.09757 -1.75728,-12.6792 -5.27155,-16.7449 -3.30772,-3.78993 -7.58008,-5.68493 -12.81709,-5.685 -9.57843,-0.13774 -19.63914,5.44389 -30.18218,16.74491 z m 26.46109,60.46772 c -34.52349,0.13781 -51.7852,-28.04597 -51.78518,-84.55145 -2e-5,-20.94826 5.16816,-37.86542 15.50455,-50.75154 10.33631,-12.88585 23.67021,-19.32884 40.00172,-19.329 11.71446,1.6e-4 22.42981,2.06743 32.14609,6.20182 l 3.411,22.63663 c -11.92137,-5.09914 -22.36109,-7.75214 -31.31918,-7.959 -21.49969,-0.62004 -32.97304,15.67694 -34.42009,48.891 10.40522,-9.57827 20.46593,-14.43636 30.18218,-14.57427 28.59717,-0.27554 42.89579,14.60881 42.89591,44.65308 -1.2e-4,17.02058 -5.03048,30.66457 -15.09109,40.932 -8.82046,9.096 -19.32909,13.71291 -31.52591,13.85073 z"
         style="fill:#000000;font-family:IndorSoft RoadSign Letters;-inkscape-font-specification:IndorSoft RoadSign Letters"
         id="path16601" />
    </g>
    <g
       transform="scale(0.92449194,1.0816752)"
       style="font-size:162.17950439px;font-style:normal;font-variant:normal;font-weight:normal;font-stretch:normal;line-height:125%;letter-spacing:0px;word-spacing:0px;fill:#000000;fill-opacity:1;stroke:none;font-family:Arial;-inkscape-font-specification:Arial"
       id="text16566">
      <path
         d="m 363.23366,584.61358 66.99407,0 0,16.1546 -24.2319,0 0,67.94434 -17.97595,0 0,-67.94434 -24.78622,0 z"
         style="fill:#000000;font-family:IndorSoft RoadSign Letters;-inkscape-font-specification:IndorSoft RoadSign Letters"
         id="path16604" />
    </g>
  </g>
</svg>
