<?xml version="1.0" encoding="UTF-8" standalone="no"?>
<!-- Created with Inkscape (http://www.inkscape.org/) -->

<svg
   xmlns:dc="http://purl.org/dc/elements/1.1/"
   xmlns:cc="http://creativecommons.org/ns#"
   xmlns:rdf="http://www.w3.org/1999/02/22-rdf-syntax-ns#"
   xmlns:svg="http://www.w3.org/2000/svg"
   xmlns="http://www.w3.org/2000/svg"
   xmlns:sodipodi="http://sodipodi.sourceforge.net/DTD/sodipodi-0.dtd"
   xmlns:inkscape="http://www.inkscape.org/namespaces/inkscape"
   width="600"
   height="600"
   id="svg2"
   version="1.1"
   inkscape:version="0.48.4 r9939"
   sodipodi:docname="3.14.svg">
  <title
     id="title3002">3.14 Ограничение ширины</title>
  <defs
     id="defs4" />
  <sodipodi:namedview
     id="base"
     pagecolor="#ffffff"
     bordercolor="#666666"
     borderopacity="1.0"
     inkscape:pageopacity="0.0"
     inkscape:pageshadow="2"
     inkscape:zoom="1"
     inkscape:cx="285.9258"
     inkscape:cy="283.89532"
     inkscape:document-units="px"
     inkscape:current-layer="layer1"
     showgrid="false"
     inkscape:window-width="1920"
     inkscape:window-height="1024"
     inkscape:window-x="-4"
     inkscape:window-y="-4"
     inkscape:window-maximized="1" />
  <metadata
     id="metadata7">
    <rdf:RDF>
      <cc:Work
         rdf:about="">
        <dc:format>image/svg+xml</dc:format>
        <dc:type
           rdf:resource="http://purl.org/dc/dcmitype/StillImage" />
        <dc:title>3.14 Ограничение ширины</dc:title>
        <cc:license
           rdf:resource="http://creativecommons.org/licenses/by-sa/3.0/" />
        <dc:description>ГОСТ Р 52290-2004
Размеры и пропорции по типоразмеру I</dc:description>
      </cc:Work>
      <cc:License
         rdf:about="http://creativecommons.org/licenses/by-sa/3.0/">
        <cc:permits
           rdf:resource="http://creativecommons.org/ns#Reproduction" />
        <cc:permits
           rdf:resource="http://creativecommons.org/ns#Distribution" />
        <cc:requires
           rdf:resource="http://creativecommons.org/ns#Notice" />
        <cc:requires
           rdf:resource="http://creativecommons.org/ns#Attribution" />
        <cc:permits
           rdf:resource="http://creativecommons.org/ns#DerivativeWorks" />
        <cc:requires
           rdf:resource="http://creativecommons.org/ns#ShareAlike" />
      </cc:License>
    </rdf:RDF>
  </metadata>
  <g
     inkscape:label="Layer 1"
     inkscape:groupmode="layer"
     id="layer1"
     transform="translate(0,-452.36218)">
    <path
       sodipodi:type="arc"
       style="opacity:1;color:#000000;fill:#ffffff;fill-opacity:1;fill-rule:nonzero;stroke:none;stroke-width:1px;marker:none;visibility:visible;display:inline;overflow:visible;enable-background:accumulate"
       id="path5334"
       sodipodi:cx="-87.720657"
       sodipodi:cy="432.25998"
       sodipodi:rx="22.107042"
       sodipodi:ry="29.465372"
       d="m -65.613615,432.25998 c 0,16.27327 -9.89766,29.46537 -22.107042,29.46537 -12.209383,0 -22.107043,-13.1921 -22.107043,-29.46537 0,-16.27328 9.89766,-29.46537 22.107043,-29.46537 12.209382,0 22.107042,13.19209 22.107042,29.46537 z"
       transform="matrix(13.570336,0,0,10.181443,1490.3988,-3648.6681)" />
    <path
       transform="matrix(13.525102,0,0,10.147505,1486.4308,-3633.998)"
       d="m -65.613615,432.25998 c 0,16.27327 -9.89766,29.46537 -22.107042,29.46537 -12.209383,0 -22.107043,-13.1921 -22.107043,-29.46537 0,-16.27328 9.89766,-29.46537 22.107043,-29.46537 12.209382,0 22.107042,13.19209 22.107042,29.46537 z"
       sodipodi:ry="29.465372"
       sodipodi:rx="22.107042"
       sodipodi:cy="432.25998"
       sodipodi:cx="-87.720657"
       id="path3003"
       style="color:#000000;fill:none;stroke:#000000;stroke-width:0.17071831000000001;stroke-miterlimit:4;stroke-opacity:1;stroke-dasharray:none;marker:none;visibility:visible;display:inline;overflow:visible;enable-background:accumulate;opacity:1"
       sodipodi:type="arc" />
    <path
       style="opacity:1;color:#000000;fill:#ff0000;fill-opacity:1;fill-rule:nonzero;stroke:none;stroke-width:1px;marker:none;visibility:visible;display:inline;overflow:visible;enable-background:accumulate"
       d="M 300 10 C 139.83742 10 10 139.83742 10 300 C 10 460.16258 139.83742 590 300 590 C 460.16258 590 590 460.16258 590 300 C 590 139.83742 460.16258 10 300 10 z M 300 59.03125 C 433.0828 59.03125 540.96875 166.91719 540.96875 300 C 540.96875 433.08281 433.0828 540.96875 300 540.96875 C 166.9172 540.96875 59.03125 433.08281 59.03125 300 C 59.03125 166.91719 166.9172 59.03125 300 59.03125 z "
       transform="translate(0,452.36218)"
       id="path4775-9" />
    <path
       style="opacity:1;fill:#000000;fill-opacity:1;stroke:none"
       d="M 77.419456,810.42661 135.48397,752.36209 77.419456,694.29758 z"
       id="path7699"
       inkscape:connector-curvature="0"
       sodipodi:nodetypes="cccc" />
    <path
       sodipodi:nodetypes="cccc"
       inkscape:connector-curvature="0"
       id="path7701"
       d="m 522.58074,810.42661 -58.06451,-58.06452 58.06451,-58.06451 z"
       style="opacity:1;fill:#000000;fill-opacity:1;stroke:none" />
    <g
       style="font-size:293.78259277000001000px;font-style:normal;font-variant:normal;font-weight:normal;font-stretch:normal;line-height:125%;letter-spacing:-17.80645180000000100px;word-spacing:0px;opacity:1;fill:#000000;fill-opacity:1;stroke:none;font-family:Arial;-inkscape-font-specification:Arial"
       id="text14291">
      <path
         d="m 168.92287,658.88395 16.45161,18.50806 c 5.09824,-5.39194 10.32505,-10.25152 15.68044,-14.57878 5.35529,-4.32697 11.09621,-6.616 17.22279,-6.86707 7.28931,0.25108 13.05471,2.5401 17.29622,6.86708 4.24134,4.32725 6.40796,9.18683 6.49986,14.57877 -0.098,7.98111 -1.73828,14.64009 -4.92079,19.97696 -3.18269,5.33708 -7.32007,10.82095 -12.41216,16.45162 -9.18065,10.94946 -18.65501,21.51324 -28.4231,31.69139 -9.76819,10.17825 -20.27077,20.37481 -31.50777,30.58971 l 0,24.67742 98.70968,0 c 2.05633,-5.22681 3.59867,-10.19656 4.62701,-14.90928 1.02811,-4.71268 1.54222,-8.6542 1.54234,-11.82459 l -67.8629,0 c 10.6739,-11.10235 20.6134,-21.28667 29.81854,-30.55299 9.20498,-9.26621 17.08803,-17.98164 23.6492,-26.14632 5.22671,-6.03462 8.9479,-11.73882 11.16359,-17.11262 2.21546,-5.3736 3.29265,-12.98736 3.23157,-22.8413 -0.55707,-12.59562 -5.61251,-22.87787 -15.16633,-30.84677 -9.55403,-7.96859 -20.26471,-12.08149 -32.13206,-12.33871 -12.25308,0.14706 -22.7067,2.49729 -31.36089,7.05069 -8.65426,4.55372 -16.02321,10.42929 -22.10685,17.62673 z"
         style="fill:#000000;font-family:Russian Road Sign;-inkscape-font-specification:Russian Road Sign"
         id="path14672" />
      <path
         d="m 307.47745,766.40699 c -5.07676,0.12815 -9.30066,1.87774 -12.67172,5.24878 -3.3711,3.37111 -5.1207,7.59501 -5.24878,12.67173 0.0986,4.63262 1.58571,8.57633 4.46133,11.83116 2.87559,3.25483 6.54796,5.22953 11.01713,5.9241 l -16.06602,25.43023 13.51382,0 c 2.05948,-2.99539 5.72559,-8.82926 10.99834,-17.50165 5.27268,-8.67241 8.60829,-14.54989 10.00685,-17.63247 0.49797,-1.2647 0.93579,-2.56166 1.31346,-3.89089 0.37756,-1.3292 0.57626,-2.71603 0.5961,-4.16048 -0.12816,-5.07671 -1.87775,-9.30062 -5.24879,-12.67173 -3.37113,-3.37105 -7.59503,-5.12064 -12.67172,-5.24878 z"
         style="fill:#000000;font-family:Russian Road Sign;-inkscape-font-specification:Russian Road Sign"
         id="path14674" />
      <path
         d="m 337.14927,662.99685 76.08871,0 c -11.69615,18.76524 -22.74957,39.84385 -33.16029,63.23589 -10.41083,23.39219 -17.86546,47.55547 -22.36391,72.48992 l 30.84678,0 c 6.34065,-29.43293 14.2237,-55.39561 23.64919,-77.88811 9.4253,-22.49234 19.36481,-43.828 29.81855,-64.00705 l 0,-20.56452 -98.70968,0 z"
         style="fill:#000000;font-family:Russian Road Sign;-inkscape-font-specification:Russian Road Sign"
         id="path14676" />
    </g>
    <g
       style="font-size:224.65725708000002000px;font-style:normal;font-variant:normal;font-weight:normal;font-stretch:normal;line-height:125%;letter-spacing:0px;word-spacing:0px;opacity:1;fill:#000000;fill-opacity:1;stroke:none;font-family:Arial;-inkscape-font-specification:Arial"
       id="text14295">
      <path
         d="m 251.25005,927.52332 18.87096,0 4.71774,-61.33065 25.16129,50.32258 25.16129,-50.32258 4.71774,61.33065 18.87097,0 -7.8629,-88.06452 -18.87097,0 -22.01613,44.03226 -22.01612,-44.03226 -18.87097,0 z"
         style="fill:#000000;font-family:Russian Road Sign;-inkscape-font-specification:Russian Road Sign"
         id="path14679" />
    </g>
  </g>
</svg>
