<?xml version="1.0" encoding="UTF-8" standalone="no"?>
<!-- Created with Inkscape (http://www.inkscape.org/) -->

<svg
   xmlns:dc="http://purl.org/dc/elements/1.1/"
   xmlns:cc="http://creativecommons.org/ns#"
   xmlns:rdf="http://www.w3.org/1999/02/22-rdf-syntax-ns#"
   xmlns:svg="http://www.w3.org/2000/svg"
   xmlns="http://www.w3.org/2000/svg"
   xmlns:sodipodi="http://sodipodi.sourceforge.net/DTD/sodipodi-0.dtd"
   xmlns:inkscape="http://www.inkscape.org/namespaces/inkscape"
   width="600"
   height="600"
   id="svg2"
   version="1.1"
   inkscape:version="0.48.4 r9939"
   sodipodi:docname="3.33.svg">
  <title
     id="title3002">3.33 Движение транспортных средств с взрывчатыми и легковоспламеняющимися грузами запрещено</title>
  <defs
     id="defs4" />
  <sodipodi:namedview
     id="base"
     pagecolor="#ffffff"
     bordercolor="#666666"
     borderopacity="1.0"
     inkscape:pageopacity="0.0"
     inkscape:pageshadow="2"
     inkscape:zoom="1"
     inkscape:cx="171.62494"
     inkscape:cy="352.88332"
     inkscape:document-units="px"
     inkscape:current-layer="layer1"
     showgrid="false"
     inkscape:window-width="1920"
     inkscape:window-height="1024"
     inkscape:window-x="-4"
     inkscape:window-y="-4"
     inkscape:window-maximized="1" />
  <metadata
     id="metadata7">
    <rdf:RDF>
      <cc:Work
         rdf:about="">
        <dc:format>image/svg+xml</dc:format>
        <dc:type
           rdf:resource="http://purl.org/dc/dcmitype/StillImage" />
        <dc:title>3.33 Движение транспортных средств с взрывчатыми и легковоспламеняющимися грузами запрещено</dc:title>
        <cc:license
           rdf:resource="http://creativecommons.org/licenses/by-sa/3.0/" />
        <dc:description>ГОСТ Р 52290-2004
Размеры и пропорции по типоразмеру I</dc:description>
      </cc:Work>
      <cc:License
         rdf:about="http://creativecommons.org/licenses/by-sa/3.0/">
        <cc:permits
           rdf:resource="http://creativecommons.org/ns#Reproduction" />
        <cc:permits
           rdf:resource="http://creativecommons.org/ns#Distribution" />
        <cc:requires
           rdf:resource="http://creativecommons.org/ns#Notice" />
        <cc:requires
           rdf:resource="http://creativecommons.org/ns#Attribution" />
        <cc:permits
           rdf:resource="http://creativecommons.org/ns#DerivativeWorks" />
        <cc:requires
           rdf:resource="http://creativecommons.org/ns#ShareAlike" />
      </cc:License>
    </rdf:RDF>
  </metadata>
  <g
     inkscape:label="Layer 1"
     inkscape:groupmode="layer"
     id="layer1"
     transform="translate(0,-452.36218)">
    <path
       sodipodi:type="arc"
       style="opacity:1;color:#000000;fill:#ffffff;fill-opacity:1;fill-rule:nonzero;stroke:none;stroke-width:1px;marker:none;visibility:visible;display:inline;overflow:visible;enable-background:accumulate"
       id="path15171"
       sodipodi:cx="-321.58774"
       sodipodi:cy="803.42432"
       sodipodi:rx="122.47533"
       sodipodi:ry="93.338097"
       d="m -199.11241,803.42432 a 122.47533,93.338097 0 1 1 -244.95065,0 122.47533,93.338097 0 1 1 244.95065,0 z"
       transform="matrix(2.449473,0,0,3.2141217,1087.7205,-1829.9414)" />
    <path
       style="opacity:1;color:#000000;fill:#000000;fill-opacity:1;fill-rule:nonzero;stroke:none;stroke-width:3.54299997999999980;marker:none;visibility:visible;display:inline;overflow:visible;enable-background:accumulate"
       d="m 241.66345,703.97507 c -6.41052,0 -12.15842,3.96494 -14.45565,9.94965 l -25.91738,67.4697 c -9.65033,0 -17.41936,7.76904 -17.41936,17.41936 l 0,42.58064 c 0,9.65032 7.76903,17.41936 17.41936,17.41936 l 197.41937,0 c 9.6503,0 17.4193,-7.76904 17.4193,-17.41936 l 0,-42.58064 c 0,-9.65032 -7.769,-17.41936 -17.4193,-17.41936 l -25.9173,-67.4697 c -2.2973,-5.98471 -8.0452,-9.94965 -14.4557,-9.94965 l -116.67334,0 z m 3.08468,19.35484 110.50406,0 c 4.0065,0 7.6064,2.45922 9.0422,6.19964 l 19.8992,51.86487 -168.38704,0 19.89919,-51.86487 c 1.43584,-3.74042 5.03574,-6.19964 9.04239,-6.19964 z M 221.613,792.03958 c 11.22387,0 20.32258,9.09871 20.32258,20.32258 0,11.22388 -9.09871,20.32259 -20.32258,20.32259 -11.22387,0 -20.32258,-9.09871 -20.32258,-20.32259 0,-11.22387 9.09871,-20.32258 20.32258,-20.32258 z m 156.77419,0 c 11.2239,0 20.3226,9.09871 20.3226,20.32258 0,11.22388 -9.0987,20.32259 -20.3226,20.32259 -11.2239,0 -20.3226,-9.09871 -20.3226,-20.32259 0,-11.22387 9.0987,-20.32258 20.3226,-20.32258 z"
       id="rect10213"
       inkscape:connector-curvature="0" />
    <path
       style="opacity:1;color:#000000;fill:#000000;fill-opacity:1;fill-rule:nonzero;stroke:none;stroke-width:1px;marker:none;visibility:visible;display:inline;overflow:visible;enable-background:accumulate"
       d="m 203.2259,872.36216 0,25.16129 c 0,10.68939 8.66545,19.35484 19.35484,19.35484 10.68939,0 19.35484,-8.66545 19.35484,-19.35484 l 0,-25.16129 -38.70968,0 z"
       id="path10221"
       inkscape:connector-curvature="0" />
    <path
       inkscape:connector-curvature="0"
       id="path10231"
       d="m 203.2259,568.49117 38.70968,80.27364 -67.74194,-17.37041 67.45703,72.58067 116.41392,0 77.4194,-96.77422 -77.4194,38.70971 38.7097,-106.45164 -64.8387,48.38709 -51.2903,-58.06451 -19.6822,60.93464 z"
       style="opacity:1;fill:#ff8000;fill-opacity:1;stroke:none"
       sodipodi:nodetypes="cccccccccccc" />
    <path
       sodipodi:nodetypes="ccccccccccccc"
       style="opacity:1;fill:#ff0000;fill-opacity:1;stroke:none"
       d="m 280.64529,601.3944 0,34.83874 -19.3549,-7.74197 19.3549,56.12906 11.6129,-9.67742 7.7419,9.67742 7.7419,-9.67742 11.6129,9.67742 19.3549,-62.90325 -19.3549,17.41938 1.9355,-39.67745 -25.1613,30 z"
       id="path10233"
       inkscape:connector-curvature="0" />
    <path
       id="path7896"
       d="m 358.06459,872.36216 0,25.16129 c 0,10.68939 8.6655,19.35484 19.3548,19.35484 10.6894,0 19.3549,-8.66545 19.3549,-19.35484 l 0,-25.16129 -38.7097,0 z"
       style="opacity:1;color:#000000;fill:#000000;fill-opacity:1;fill-rule:nonzero;stroke:none;stroke-width:1px;marker:none;visibility:visible;display:inline;overflow:visible;enable-background:accumulate"
       inkscape:connector-curvature="0" />
    <path
       transform="matrix(13.525102,0,0,10.147505,1486.4308,-3633.998)"
       d="m -65.613615,432.25998 c 0,16.27327 -9.89766,29.46537 -22.107042,29.46537 -12.209383,0 -22.107043,-13.1921 -22.107043,-29.46537 0,-16.27328 9.89766,-29.46537 22.107043,-29.46537 12.209382,0 22.107042,13.19209 22.107042,29.46537 z"
       sodipodi:ry="29.465372"
       sodipodi:rx="22.107042"
       sodipodi:cy="432.25998"
       sodipodi:cx="-87.720657"
       id="path3003"
       style="color:#000000;fill:none;stroke:#000000;stroke-width:0.17071831000000001;stroke-miterlimit:4;stroke-opacity:1;stroke-dasharray:none;marker:none;visibility:visible;display:inline;overflow:visible;enable-background:accumulate;opacity:1"
       sodipodi:type="arc" />
    <path
       style="opacity:1;color:#000000;fill:#ff0000;fill-opacity:1;fill-rule:nonzero;stroke:none;stroke-width:1px;marker:none;visibility:visible;display:inline;overflow:visible;enable-background:accumulate"
       d="M 300 10 C 139.83742 10 10 139.83742 10 300 C 10 460.16258 139.83742 590 300 590 C 460.16258 590 590 460.16258 590 300 C 590 139.83742 460.16258 10 300 10 z M 300 59.03125 C 433.0828 59.03125 540.96875 166.91719 540.96875 300 C 540.96875 433.08281 433.0828 540.96875 300 540.96875 C 166.9172 540.96875 59.03125 433.08281 59.03125 300 C 59.03125 166.91719 166.9172 59.03125 300 59.03125 z "
       transform="translate(0,452.36218)"
       id="path4775-9" />
  </g>
</svg>
