<?xml version="1.0" ?>
<!-- Created with Inkscape (http://www.inkscape.org/) -->
<svg height="94.999992" id="svg2800" inkscape:output_extension="org.inkscape.output.svg.inkscape" inkscape:version="0.46" sodipodi:docname="ua_7.11_additional-ferrying_across.svg" sodipodi:version="0.32" version="1.0" width="190.00002" xmlns="http://www.w3.org/2000/svg" xmlns:cc="http://creativecommons.org/ns#" xmlns:dc="http://purl.org/dc/elements/1.1/" xmlns:inkscape="http://www.inkscape.org/namespaces/inkscape" xmlns:rdf="http://www.w3.org/1999/02/22-rdf-syntax-ns#" xmlns:sodipodi="http://sodipodi.sourceforge.net/DTD/sodipodi-0.dtd" xmlns:svg="http://www.w3.org/2000/svg">
	
	
	
	
  
	
	
	
	<sodipodi:namedview bordercolor="#666666" borderopacity="1.0" gridtolerance="10.0" guidetolerance="10.0" id="base" inkscape:current-layer="svg2800" inkscape:cx="114.01025" inkscape:cy="36.471949" inkscape:pageopacity="0.0" inkscape:pageshadow="2" inkscape:window-height="480" inkscape:window-width="640" inkscape:zoom="3.6641378" objecttolerance="10.0" pagecolor="#ffffff" showgrid="false"/>
	
	
	
	
  
	
	
	
	<metadata id="metadata2805">
		
		
		
		
    
  
		
		
	
		
		
	
		
		
	
		<rdf:RDF>
			<cc:Work rdf:about="">
				
        
				<dc:format>
					image/svg+xml
				</dc:format>
				
        
				<dc:type rdf:resource="http://purl.org/dc/dcmitype/StillImage"/>
				
        
				<dc:title>
					 sign
				</dc:title>
				
        
				<cc:license rdf:resource="http://creativecommons.org/licenses/by-nc-sa/3.0/"/>
				
        
				<dc:creator>
					
            
					<cc:Agent>
						
                
						<dc:title>
							Artem Oliynyk
						</dc:title>
						
            
					</cc:Agent>
					
        
				</dc:creator>
				
        
				<dc:rights>
					
            
					<cc:Agent>
						
                
						<dc:title>
							Artem Oliynyk
						</dc:title>
						
            
					</cc:Agent>
					
        
				</dc:rights>
				
        
				<dc:identifier>
					http://azure.km.ua/ua-vector-signs/7_Additional/ua_7.11_additional-ferrying_across.svg
				</dc:identifier>
				
        
				<dc:language>
					uk-UA
				</dc:language>
				
        
				<dc:date>
					2010-04-24
				</dc:date>
				
    
			</cc:Work>
			<cc:License rdf:about="http://creativecommons.org/licenses/by-nc-sa/3.0/">
				
        
				<cc:permits rdf:resource="http://creativecommons.org/ns#Reproduction"/>
				
        
				<cc:permits rdf:resource="http://creativecommons.org/ns#Distribution"/>
				
        
				<cc:requires rdf:resource="http://creativecommons.org/ns#Notice"/>
				
        
				<cc:requires rdf:resource="http://creativecommons.org/ns#Attribution"/>
				
        
				<cc:prohibits rdf:resource="http://creativecommons.org/ns#CommercialUse"/>
				
        
				<cc:permits rdf:resource="http://creativecommons.org/ns#DerivativeWorks"/>
				
        
				<cc:requires rdf:resource="http://creativecommons.org/ns#ShareAlike"/>
				
    
			</cc:License>
		</rdf:RDF>
	</metadata>
	
	
	
	
  
	
	
	
	<defs id="defs2803">
		
		
		
		
    
		
		
		
		<inkscape:perspective id="perspective2807" inkscape:persp3d-origin="372.04724 : 350.78739 : 1" inkscape:vp_x="0 : 526.18109 : 1" inkscape:vp_y="0 : 1000 : 0" inkscape:vp_z="744.09448 : 526.18109 : 1" sodipodi:type="inkscape:persp3d"/>
		
		
		
		
    
		
		
		
		<inkscape:perspective id="perspective2818" inkscape:persp3d-origin="372.04724 : 350.78739 : 1" inkscape:vp_x="0 : 526.18109 : 1" inkscape:vp_y="0 : 1000 : 0" inkscape:vp_z="744.09448 : 526.18109 : 1" sodipodi:type="inkscape:persp3d"/>
		
		
		
		
  
	
	
	
	</defs>
	
	
	
	
  
	
	
	
	<g id="g2385">
		
		
		
		
    
		
		
		
		<path class="fil2 str0" d="M 7.371,0 L 182.62901,0 C 186.6827,0 190.00001,4.23014 190.00001,9.40181 L 190.00001,85.59818 C 190.00001,90.76882 186.6827,94.99999 182.62901,94.99999 L 7.371,94.99999 C 3.31632,94.99999 0,90.76882 0,85.59818 L 0,9.40181 C 0,4.23014 3.31632,0 7.371,0 z" id="path2450" sodipodi:nodetypes="ccccccccc" style="fill:#ffffff;fill-rule:evenodd;stroke:#000000;stroke-width:0.00460626000000000"/>
		
		
		
		
    
		
		
		
		<path class="fil2 str0" d="M 7.371,0 L 182.62901,0 C 186.6827,0 190.00001,4.23014 190.00001,9.40181 L 190.00001,85.59818 C 190.00001,90.76882 186.6827,94.99999 182.62901,94.99999 L 7.371,94.99999 C 3.31632,94.99999 0,90.76882 0,85.59818 L 0,9.40181 C 0,4.23014 3.31632,0 7.371,0 z M 8.38346,4.52887 L 181.61559,4.52887 C 183.6661,4.52887 185.34396,6.56163 185.34396,9.04691 L 185.34396,85.86435 C 185.34396,88.34863 183.6661,90.38238 181.61559,90.38238 L 8.38346,90.38238 C 6.33295,90.38238 4.65505,88.34863 4.65505,85.86435 L 4.65505,9.04691 C 4.65505,6.56163 6.33295,4.52887 8.38346,4.52887 z" id="path4720" style="fill:#000000;fill-rule:evenodd;stroke:#000000;stroke-width:0.00460626"/>
		
		
		
		
    
		
		
		
		<g id="g3641" transform="matrix(2.0992024,0,0,2.0992024,-350.3113,-244.89232)">
			
			
			
			
      
			
			
			
			<path d="M 170.74114,138.04665 L 177.81343,156.89865 L 244.70702,156.89865 L 252.3569,137.86465 L 246.75804,137.86465 L 246.75804,133.88965 L 242.1976,133.88965 L 240.30895,125.71465 L 227.91298,125.71465 L 223.42828,128.35965 L 210.06842,128.35965 L 207.89962,123.5223 L 205.55204,119.45165 L 197.07425,119.45165 L 200.20786,123.58433 L 199.79864,125.75207 L 197.33568,124.80007 L 181.20604,124.68876 L 181.20604,129.43065 L 182.40604,129.43065 L 182.58134,133.33765 L 178.0651,133.33765 L 172.31811,126.96609 L 176.25461,134.87909 L 176.25461,138.04665 L 170.74114,138.04665 z" id="path2830" sodipodi:nodetypes="cccccccccccccccccccccccccc" style="fill:#000000;fill-opacity:1;fill-rule:evenodd;stroke:none;stroke-width:1px;stroke-linecap:butt;stroke-linejoin:miter;stroke-opacity:1"/>
			
			
			
			
      
			
			
			
			<path class="fil2 str0" d="M 197.36479,152.23972 C 197.12005,151.24635 196.22742,150.52677 195.16201,150.52677 C 193.89511,150.52677 192.91618,151.5343 192.91618,152.80106 C 192.91618,152.80106 192.91618,152.80106 192.91618,152.80106 L 184.37908,152.80106 C 184.37908,152.80106 184.39344,152.80106 184.39344,152.80106 C 184.39344,151.5343 183.38562,150.52677 182.11872,150.52677 C 181.03896,150.52677 180.16087,151.24635 179.93049,152.23972 L 179.31129,152.23972 C 179.09546,152.23972 178.76423,151.79354 178.73553,151.66383 L 178.15958,149.8357 C 178.03005,149.5623 178.05893,148.91447 178.23172,148.7417 L 181.29804,145.1574 C 181.44213,145.01332 181.83074,144.5815 182.14742,144.5815 L 189.21631,144.5815 C 189.77773,144.5815 190.16634,144.89815 190.35368,145.1574 L 192.29718,147.84916 C 192.46997,148.07952 192.82989,148.23794 193.11767,148.26663 L 198.30046,149.11593 C 198.50215,149.14482 198.93402,149.44713 198.86206,149.96523 L 198.58844,151.66383 C 198.5452,151.98066 198.17093,152.23972 198.01268,152.23972 L 197.36479,152.23972 z M 182.13307,153.9383 C 182.76662,153.9383 183.27043,153.43455 183.27043,152.80106 C 183.27043,152.16777 182.76662,151.66383 182.13307,151.66383 C 181.49972,151.66383 180.99571,152.16777 180.99571,152.80106 C 180.99571,153.43455 181.49972,153.9383 182.13307,153.9383 z M 182.13307,154.7876 C 183.24173,154.7876 184.11982,153.90961 184.11982,152.80106 C 184.11982,151.69271 183.24173,150.81452 182.13307,150.81452 C 181.02461,150.81452 180.14634,151.69271 180.14634,152.80106 C 180.14634,153.90961 181.02461,154.7876 182.13307,154.7876 z M 195.17656,154.7876 C 196.28502,154.7876 197.16311,153.90961 197.16311,152.80106 C 197.16311,151.69271 196.28502,150.81452 195.17656,150.81452 C 194.06789,150.81452 193.18981,151.69271 193.18981,152.80106 C 193.18981,153.90961 194.06789,154.7876 195.17656,154.7876 L 195.17656,154.7876 z M 195.17656,153.9383 C 195.80992,153.9383 196.31372,153.43455 196.31372,152.80106 C 196.31372,152.16777 195.80992,151.66383 195.17656,151.66383 C 194.54301,151.66383 194.03919,152.16777 194.03919,152.80106 C 194.03919,153.43455 194.54301,153.9383 195.17656,153.9383 z M 188.84186,145.4308 L 183.15524,145.4308 C 182.68013,145.4308 182.56494,145.34451 182.24827,146.10733 L 181.85964,147.05746 C 181.55731,147.76288 181.7588,148.55457 182.89616,148.55457 L 190.36803,148.55457 C 190.97268,148.55457 191.08787,147.82046 190.8286,147.41734 L 189.99376,146.15057 C 189.73448,145.74744 189.31697,145.4308 188.84186,145.4308 L 188.84186,145.4308 z" id="_144339184" style="fill:#ffffff;fill-rule:evenodd;stroke:#ffffff;stroke-width:0.00219431"/>
			
			
			
			
      
			
			
			
			<path class="fil2 str0" d="M 219.72129,152.49876 C 219.47655,151.50539 218.58392,150.78581 217.51851,150.78581 C 216.25161,150.78581 215.27268,151.79334 215.27268,153.0601 C 215.27268,153.0601 215.27268,153.0601 215.27268,153.0601 L 206.73558,153.0601 C 206.73558,153.0601 206.74994,153.0601 206.74994,153.0601 C 206.74994,151.79334 205.74212,150.78581 204.47522,150.78581 C 203.39546,150.78581 202.51737,151.50539 202.28699,152.49876 L 201.66779,152.49876 C 201.45196,152.49876 201.12073,152.05258 201.09203,151.92287 L 200.51608,150.09474 C 200.38655,149.82134 200.41543,149.17351 200.58822,149.00074 L 203.65454,145.41644 C 203.79863,145.27236 204.18724,144.84054 204.50392,144.84054 L 211.57281,144.84054 C 212.13423,144.84054 212.52284,145.15719 212.71018,145.41644 L 214.65368,148.1082 C 214.82647,148.33856 215.18639,148.49698 215.47417,148.52567 L 220.65696,149.37497 C 220.85865,149.40386 221.29052,149.70617 221.21856,150.22427 L 220.94494,151.92287 C 220.9017,152.2397 220.52743,152.49876 220.36918,152.49876 L 219.72129,152.49876 z M 204.48957,154.19734 C 205.12312,154.19734 205.62693,153.69359 205.62693,153.0601 C 205.62693,152.42681 205.12312,151.92287 204.48957,151.92287 C 203.85622,151.92287 203.35221,152.42681 203.35221,153.0601 C 203.35221,153.69359 203.85622,154.19734 204.48957,154.19734 z M 204.48957,155.04664 C 205.59823,155.04664 206.47632,154.16865 206.47632,153.0601 C 206.47632,151.95175 205.59823,151.07356 204.48957,151.07356 C 203.38111,151.07356 202.50284,151.95175 202.50284,153.0601 C 202.50284,154.16865 203.38111,155.04664 204.48957,155.04664 z M 217.53306,155.04664 C 218.64152,155.04664 219.51961,154.16865 219.51961,153.0601 C 219.51961,151.95175 218.64152,151.07356 217.53306,151.07356 C 216.42439,151.07356 215.54631,151.95175 215.54631,153.0601 C 215.54631,154.16865 216.42439,155.04664 217.53306,155.04664 L 217.53306,155.04664 z M 217.53306,154.19734 C 218.16642,154.19734 218.67022,153.69359 218.67022,153.0601 C 218.67022,152.42681 218.16642,151.92287 217.53306,151.92287 C 216.89951,151.92287 216.39569,152.42681 216.39569,153.0601 C 216.39569,153.69359 216.89951,154.19734 217.53306,154.19734 z M 211.19836,145.68984 L 205.51174,145.68984 C 205.03663,145.68984 204.92144,145.60355 204.60477,146.36637 L 204.21614,147.3165 C 203.91381,148.02192 204.1153,148.81361 205.25266,148.81361 L 212.72453,148.81361 C 213.32918,148.81361 213.44437,148.0795 213.1851,147.67638 L 212.35026,146.40961 C 212.09098,146.00648 211.67347,145.68984 211.19836,145.68984 L 211.19836,145.68984 z" id="path3637" style="fill:#ffffff;fill-rule:evenodd;stroke:#ffffff;stroke-width:0.00219431"/>
			
			
			
			
      
			
			
			
			<path class="fil2 str0" d="M 241.92372,152.49877 C 241.67898,151.5054 240.78635,150.78582 239.72094,150.78582 C 238.45404,150.78582 237.47511,151.79335 237.47511,153.06011 C 237.47511,153.06011 237.47511,153.06011 237.47511,153.06011 L 228.93801,153.06011 C 228.93801,153.06011 228.95237,153.06011 228.95237,153.06011 C 228.95237,151.79335 227.94455,150.78582 226.67765,150.78582 C 225.59789,150.78582 224.7198,151.5054 224.48942,152.49877 L 223.87022,152.49877 C 223.65439,152.49877 223.32316,152.05259 223.29446,151.92288 L 222.71851,150.09475 C 222.58898,149.82135 222.61786,149.17352 222.79065,149.00075 L 225.85697,145.41645 C 226.00106,145.27237 226.38967,144.84055 226.70635,144.84055 L 233.77524,144.84055 C 234.33666,144.84055 234.72527,145.1572 234.91261,145.41645 L 236.85611,148.10821 C 237.0289,148.33857 237.38882,148.49699 237.6766,148.52568 L 242.85939,149.37498 C 243.06108,149.40387 243.49295,149.70618 243.42099,150.22428 L 243.14737,151.92288 C 243.10413,152.23971 242.72986,152.49877 242.57161,152.49877 L 241.92372,152.49877 z M 226.692,154.19735 C 227.32555,154.19735 227.82936,153.6936 227.82936,153.06011 C 227.82936,152.42682 227.32555,151.92288 226.692,151.92288 C 226.05865,151.92288 225.55464,152.42682 225.55464,153.06011 C 225.55464,153.6936 226.05865,154.19735 226.692,154.19735 z M 226.692,155.04665 C 227.80066,155.04665 228.67875,154.16866 228.67875,153.06011 C 228.67875,151.95176 227.80066,151.07357 226.692,151.07357 C 225.58354,151.07357 224.70527,151.95176 224.70527,153.06011 C 224.70527,154.16866 225.58354,155.04665 226.692,155.04665 z M 239.73549,155.04665 C 240.84395,155.04665 241.72204,154.16866 241.72204,153.06011 C 241.72204,151.95176 240.84395,151.07357 239.73549,151.07357 C 238.62682,151.07357 237.74874,151.95176 237.74874,153.06011 C 237.74874,154.16866 238.62682,155.04665 239.73549,155.04665 L 239.73549,155.04665 z M 239.73549,154.19735 C 240.36885,154.19735 240.87265,153.6936 240.87265,153.06011 C 240.87265,152.42682 240.36885,151.92288 239.73549,151.92288 C 239.10194,151.92288 238.59812,152.42682 238.59812,153.06011 C 238.59812,153.6936 239.10194,154.19735 239.73549,154.19735 z M 233.40079,145.68985 L 227.71417,145.68985 C 227.23906,145.68985 227.12387,145.60356 226.8072,146.36638 L 226.41857,147.31651 C 226.11624,148.02193 226.31773,148.81362 227.45509,148.81362 L 234.92696,148.81362 C 235.53161,148.81362 235.6468,148.07951 235.38753,147.67639 L 234.55269,146.40962 C 234.29341,146.00649 233.8759,145.68985 233.40079,145.68985 L 233.40079,145.68985 z" id="path3639" style="fill:#ffffff;fill-rule:evenodd;stroke:#ffffff;stroke-width:0.00219431"/>
			
			
			
			
    
		
		
		
		</g>
		
		
		
		
  
	
	
	
	</g>
	
	
	
	




</svg>
